<svg width="116" height="84" viewBox="0 0 116 84" fill="none" xmlns="http://www.w3.org/2000/svg">
<path d="M105.998 26V10C105.998 5.582 102.417 2 97.998 2H10C5.582 2 2 5.582 2 10V58.033C2 62.451 5.582 66.033 10 66.033H57.817" stroke="#5C5C5C" stroke-width="3" stroke-linecap="round" stroke-linejoin="round"/>
<path fill-rule="evenodd" clip-rule="evenodd" d="M111.714 82H84.2859C83.0239 82 81.9999 80.977 81.9999 79.715V60.286C81.9999 59.023 83.0239 58 84.2859 58H111.714C112.977 58 114 59.023 114 60.286V79.715C114 80.977 112.977 82 111.714 82Z" stroke="#5C5C5C" stroke-width="3" stroke-linecap="round" stroke-linejoin="round"/>
<path d="M90 58V50C90 45.582 93.582 42 98 42C102.418 42 106 45.582 106 50V58" stroke="#5C5C5C" stroke-width="3" stroke-linecap="round" stroke-linejoin="round"/>
<path d="M98 66V74" stroke="#5C5C5C" stroke-width="3" stroke-linecap="round" stroke-linejoin="round"/>
<path fill-rule="evenodd" clip-rule="evenodd" d="M33.999 30.0332C33.999 32.2422 32.208 34.0332 29.999 34.0332C27.79 34.0332 25.999 32.2422 25.999 30.0332C25.999 27.8232 27.79 26.0332 29.999 26.0332C32.208 26.0332 33.999 27.8232 33.999 30.0332" fill="#5C5C5C"/>
<path d="M25.999 42.0332H33.999" stroke="#5C5C5C" stroke-width="3" stroke-linecap="round" stroke-linejoin="round"/>
<path fill-rule="evenodd" clip-rule="evenodd" d="M57.999 30.0332C57.999 32.2422 56.208 34.0332 53.999 34.0332C51.79 34.0332 49.999 32.2422 49.999 30.0332C49.999 27.8232 51.79 26.0332 53.999 26.0332C56.208 26.0332 57.999 27.8232 57.999 30.0332" fill="#5C5C5C"/>
<path d="M49.999 42.0332H57.999" stroke="#5C5C5C" stroke-width="3" stroke-linecap="round" stroke-linejoin="round"/>
<path fill-rule="evenodd" clip-rule="evenodd" d="M81.999 30.0332C81.999 32.2422 80.208 34.0332 77.999 34.0332C75.79 34.0332 73.999 32.2422 73.999 30.0332C73.999 27.8232 75.79 26.0332 77.999 26.0332C80.208 26.0332 81.999 27.8232 81.999 30.0332" fill="#5C5C5C"/>
<path d="M73.999 42.0332H81.999" stroke="#5C5C5C" stroke-width="3" stroke-linecap="round" stroke-linejoin="round"/>
</svg>
