<svg width="100" height="116" viewBox="0 0 100 116" fill="none" xmlns="http://www.w3.org/2000/svg">
<path fill-rule="evenodd" clip-rule="evenodd" d="M95.7373 113.964H68.3083C67.0463 113.964 66.0223 112.942 66.0223 111.679V92.2596C66.0223 90.9966 67.0463 89.9746 68.3083 89.9746H95.7373C97.0003 89.9746 98.0223 90.9966 98.0223 92.2596V111.679C98.0223 112.942 97.0003 113.964 95.7373 113.964Z" stroke="#5C5C5C" stroke-width="3" stroke-linecap="round" stroke-linejoin="round"/>
<path d="M74.0225 89.9745V81.9775C74.0225 77.5605 77.6045 73.9805 82.0225 73.9805C86.4415 73.9805 90.0225 77.5605 90.0225 81.9775V89.9745" stroke="#5C5C5C" stroke-width="3" stroke-linecap="round" stroke-linejoin="round"/>
<path d="M82.0225 97.9688V105.966" stroke="#5C5C5C" stroke-width="3" stroke-linecap="round" stroke-linejoin="round"/>
<path fill-rule="evenodd" clip-rule="evenodd" d="M37.5684 42.0005H6.46341C4.00841 42.0005 2.01941 40.0115 2.01941 37.5575V15.3485C2.01941 7.98653 7.98741 2.01953 15.3484 2.01953H37.5684C40.0224 2.01953 42.0114 4.00853 42.0114 6.46253V37.5575C42.0114 40.0115 40.0224 42.0005 37.5684 42.0005Z" stroke="#5C5C5C" stroke-width="3" stroke-linecap="round" stroke-linejoin="round"/>
<path fill-rule="evenodd" clip-rule="evenodd" d="M93.6055 42.0001H62.4825C60.0295 42.0001 58.0405 40.0111 58.0405 37.5571V6.47911C58.0405 4.02611 60.0295 2.03711 62.4825 2.03711H84.7195C92.0815 2.03711 98.0485 8.00411 98.0485 15.3651V37.5571C98.0485 40.0111 96.0595 42.0001 93.6055 42.0001Z" stroke="#5C5C5C" stroke-width="3" stroke-linecap="round" stroke-linejoin="round"/>
<path fill-rule="evenodd" clip-rule="evenodd" d="M37.586 98.0571H15.41C8.044 98.0571 2.073 92.0861 2.073 84.7211V62.4421C2.073 59.9871 4.064 57.9961 6.519 57.9961H37.586C40.041 57.9961 42.031 59.9871 42.031 62.4421V93.6121C42.031 96.0671 40.041 98.0571 37.586 98.0571Z" stroke="#5C5C5C" stroke-width="3" stroke-linecap="round" stroke-linejoin="round"/>
<path d="M57.9912 98.0582V62.5162C57.9912 60.0632 59.9902 58.0742 62.4572 58.0742H98.1832" stroke="#5C5C5C" stroke-width="3" stroke-linecap="round" stroke-linejoin="round"/>
<path fill-rule="evenodd" clip-rule="evenodd" d="M87.3613 33.9827H68.7093C67.2393 33.9827 66.0473 32.7917 66.0473 31.3207V12.7137C66.0473 11.2447 67.2393 10.0527 68.7093 10.0527H82.0383C86.4483 10.0527 90.0223 13.6277 90.0223 18.0377V31.3207C90.0223 32.7917 88.8313 33.9827 87.3613 33.9827Z" stroke="#5C5C5C" stroke-width="3" stroke-linecap="round" stroke-linejoin="round"/>
<path fill-rule="evenodd" clip-rule="evenodd" d="M31.3848 34.0218H12.6888C11.2148 34.0218 10.0198 32.8268 10.0198 31.3528V18.0178C10.0198 13.5948 13.6048 10.0098 18.0278 10.0098H31.3848C32.8598 10.0098 34.0538 11.2058 34.0538 12.6788V31.3528C34.0538 32.8268 32.8598 34.0218 31.3848 34.0218Z" stroke="#5C5C5C" stroke-width="3" stroke-linecap="round" stroke-linejoin="round"/>
<path fill-rule="evenodd" clip-rule="evenodd" d="M31.3633 90.0496H17.9993C13.5683 90.0496 9.97632 86.4576 9.97632 82.0276V68.6486C9.97632 67.1716 11.1743 65.9746 12.6513 65.9746H31.3633C32.8403 65.9746 34.0373 67.1716 34.0373 68.6486V87.3746C34.0373 88.8526 32.8403 90.0496 31.3633 90.0496Z" stroke="#5C5C5C" stroke-width="3" stroke-linecap="round" stroke-linejoin="round"/>
</svg>
